# xmcd
#
# Track frame offsets:
#	150
#	16890
#	30931
#	47434
#	62129
#	75791
#	86913
#	100110
#	112158
#	125599
#	139818
#	152802
#
# Disc length: 2308 seconds
#
# Revision: 0
# Processed by: cddbd v1.5.1PL0 Copyright (c) Steve Scherf et al.
# Submitted via: dBpowerAMP V4.0
#
DISCID=8f09020c
DTITLE=Billy Mata - TRADITIONALLY YOURS
DYEAR=1900
DGENRE=
TTITLE0=Goodbye Lisa Jane
TTITLE1=Beer Drinking Music
TTITLE2=Just To Celebrate
TTITLE3=Texas Is To Big
TTITLE4=How Much More Can She Stand
TTITLE5=I'll Go To A Stranger
TTITLE6=The World Is Waiting For The Sunrise
TTITLE7=Spanish Two Step
TTITLE8=That Rain Making Baby Of Mine
TTITLE9=I Didn't Realize
TTITLE10=Magic Moments
TTITLE11=Again
EXTD=
EXTT0=
EXTT1=
EXTT2=
EXTT3=
EXTT4=
EXTT5=
EXTT6=
EXTT7=
EXTT8=
EXTT9=
EXTT10=
EXTT11=
PLAYORDER=
